Coordinates
version=1
nRows=34
nColumns=38
inDegrees=no

Units are S.I. units (second, meters, Newtons, ...)
If the header above contains a line with 'inDegrees', this indicates whether rotational values are in degrees (yes) or radians (no).

endheader
time	pelvis_tilt	pelvis_list	pelvis_rotation	pelvis_tx	pelvis_ty	pelvis_tz	hip_flexion_r	hip_adduction_r	hip_rotation_r	knee_angle_r	ankle_angle_r	subtalar_angle_r	mtp_angle_r	hip_flexion_l	hip_adduction_l	hip_rotation_l	knee_angle_l	ankle_angle_l	subtalar_angle_l	mtp_angle_l	lumbar_extension	lumbar_bending	lumbar_rotation	arm_flex_r	arm_add_r	arm_rot_r	elbow_flex_r	pro_sup_r	wrist_flex_r	wrist_dev_r	arm_flex_l	arm_add_l	arm_rot_l	elbow_flex_l	pro_sup_l	wrist_flex_l	wrist_dev_l
1.59	3.04794	1.05592	1.56387	0.507187	-0.359548	0.997722	0.370368	-0.0613774	0.0123653	0.737734	-0.439038	0	0	0.8197	0.0274024	-0.108375	0.296614	-0.23819	0	0	0.476598	0.0702822	0.343931	-0.401934	-0.243319	-0.267302	0.710948	1.56086	0	0	-0.08119	-0.0861438	-0.571205	0.504831	1.31953	0	0
1.6	3.03679	1.06266	1.57301	0.507237	-0.372187	0.998601	0.38747	-0.0682616	0.0196974	0.783667	-0.488083	0	0	0.805465	0.0336387	-0.111681	0.308639	-0.223055	0	0	0.466071	0.0620754	0.344428	-0.39332	-0.241962	-0.252648	0.681427	1.55738	0	0	-0.0791747	-0.0853496	-0.573238	0.507911	1.3244	0	0
1.61	3.02852	1.07197	1.57711	0.507125	-0.384786	0.999749	0.402302	-0.0724215	0.0272716	0.826596	-0.541078	0	0	0.786061	0.037079	-0.11953	0.316596	-0.207397	0	0	0.452488	0.0574814	0.345379	-0.384457	-0.24305	-0.233564	0.653238	1.55364	0	0	-0.0775103	-0.0831991	-0.575851	0.511219	1.33019	0	0
1.62	3.0236	1.08084	1.57678	0.506927	-0.397453	1.00097	0.417377	-0.0742296	0.0343794	0.866425	-0.585144	0	0	0.76505	0.0385016	-0.13079	0.321179	-0.192733	0	0	0.441058	0.0564123	0.346585	-0.377157	-0.244655	-0.213276	0.626096	1.55138	0	0	-0.0772854	-0.08024	-0.578163	0.514435	1.33309	0	0
1.63	3.02237	1.08925	1.57335	0.506769	-0.410213	1.00244	0.432063	-0.0742681	0.0409559	0.903056	-0.611736	0	0	0.743028	0.0385859	-0.141982	0.323459	-0.178445	0	0	0.431226	0.0580986	0.345826	-0.369951	-0.247257	-0.189344	0.598417	1.54924	0	0	-0.0779627	-0.0769105	-0.580744	0.515899	1.33354	0	0
1.64	3.02338	1.09492	1.56891	0.506717	-0.422933	1.00401	0.448903	-0.0737925	0.046073	0.937171	-0.612901	0	0	0.723018	0.0382628	-0.151475	0.323693	-0.167064	0	0	0.426194	0.0614222	0.343996	-0.364367	-0.249653	-0.164711	0.571127	1.55051	0	0	-0.0791015	-0.0738546	-0.583057	0.5148	1.33209	0	0
1.65	3.02345	1.10122	1.56559	0.506807	-0.435343	1.00592	0.465341	-0.0743988	0.0498715	0.969953	-0.594092	0	0	0.702175	0.0380838	-0.161225	0.32216	-0.15746	0	0	0.419814	0.0643613	0.340866	-0.357383	-0.253253	-0.135848	0.544494	1.55281	0	0	-0.0798658	-0.0707041	-0.586084	0.512613	1.32952	0	0
1.66	3.02553	1.10599	1.5634	0.507106	-0.447726	1.00795	0.482583	-0.0756811	0.0494093	1.00031	-0.5633	0	0	0.682831	0.0384374	-0.166663	0.318911	-0.151765	0	0	0.41616	0.0673118	0.334702	-0.351853	-0.256259	-0.107689	0.519619	1.558	0	0	-0.0810646	-0.0690984	-0.587325	0.507885	1.33012	0	0
1.67	3.03222	1.10596	1.56115	0.507654	-0.460246	1.00967	0.503552	-0.0770202	0.043145	1.02709	-0.528043	0	0	0.668758	0.0390511	-0.164508	0.315247	-0.148174	0	0	0.420361	0.0709366	0.324199	-0.350057	-0.257834	-0.0826885	0.497475	1.56501	0	0	-0.0845524	-0.0684454	-0.588997	0.502951	1.33069	0	0
1.68	3.04098	1.10638	1.55802	0.508336	-0.472648	1.01143	0.523744	-0.0782091	0.0355864	1.04986	-0.495501	0	0	0.65446	0.0392794	-0.159253	0.311695	-0.145695	0	0	0.424341	0.0751249	0.313394	-0.351212	-0.259093	-0.0629271	0.480482	1.5708	0	0	-0.0873838	-0.0682342	-0.589271	0.497043	1.33208	0	0
1.69	3.0493	1.10801	1.55478	0.50904	-0.484822	1.01328	0.542689	-0.079645	0.028037	1.06827	-0.463566	0	0	0.639138	0.0395232	-0.154602	0.308677	-0.14341	0	0	0.426202	0.0791159	0.303917	-0.354012	-0.261149	-0.0444183	0.468067	1.5708	0	0	-0.0891619	-0.0674511	-0.590425	0.49158	1.33348	0	0
1.7	3.05809	1.10957	1.55068	0.509744	-0.496882	1.01514	0.561133	-0.0807299	0.0201686	1.08079	-0.435131	0	0	0.623732	0.0396348	-0.150932	0.306055	-0.140887	0	0	0.427646	0.0836237	0.29543	-0.35814	-0.263067	-0.028843	0.457801	1.5708	0	0	-0.0904453	-0.0655398	-0.594232	0.486933	1.33428	0	0
1.71	3.06876	1.10933	1.5448	0.510406	-0.508969	1.01689	0.580701	-0.0808615	0.011485	1.08767	-0.410636	0	0	0.609668	0.0390999	-0.147816	0.303555	-0.137642	0	0	0.431339	0.0891053	0.286647	-0.36415	-0.26388	-0.0201587	0.44975	1.5708	0	0	-0.0928298	-0.0627747	-0.600759	0.48391	1.33365	0	0
1.72	3.07923	1.11212	1.5368	0.510867	-0.520794	1.01888	0.597354	-0.0795064	0.00572798	1.09005	-0.390682	0	0	0.59175	0.0374163	-0.14862	0.300361	-0.134231	0	0	0.429896	0.0949301	0.280063	-0.369153	-0.264263	-0.0183566	0.443562	1.5708	0	0	-0.0939854	-0.0605284	-0.605001	0.480608	1.33399	0	0
1.73	3.08934	1.11647	1.52737	0.511181	-0.532332	1.02089	0.612204	-0.0769605	0.00174667	1.08796	-0.371541	0	0	0.571649	0.0350561	-0.152372	0.295913	-0.131206	0	0	0.425285	0.100809	0.275601	-0.373273	-0.26443	-0.0207057	0.438209	1.5708	0	0	-0.0942135	-0.0586903	-0.60724	0.477507	1.33512	0	0
1.74	3.09997	1.12068	1.51753	0.511436	-0.543809	1.02284	0.626114	-0.0738366	-0.00212337	1.08102	-0.352787	0	0	0.55231	0.0326467	-0.158371	0.292836	-0.128485	0	0	0.420705	0.106768	0.271796	-0.377793	-0.263758	-0.0277278	0.433234	1.5708	0	0	-0.0939401	-0.0564282	-0.609891	0.475067	1.33408	0	0
1.75	3.11023	1.12307	1.50797	0.511568	-0.555167	1.02452	0.641115	-0.0703095	-0.0058464	1.06996	-0.333318	0	0	0.533551	0.0300763	-0.162348	0.284696	-0.127946	0	0	0.418013	0.112581	0.268489	-0.383025	-0.262283	-0.0384861	0.429662	1.56457	0	0	-0.0943687	-0.0536997	-0.613159	0.474842	1.33106	0	0
1.76	3.12072	1.1236	1.49855	0.511579	-0.566401	1.02603	0.656897	-0.0656367	-0.00868918	1.05435	-0.312474	0	0	0.516099	0.0269077	-0.166382	0.273821	-0.129669	0	0	0.417165	0.118375	0.264684	-0.388004	-0.260539	-0.0503125	0.426375	1.55369	0	0	-0.0956852	-0.0517534	-0.613911	0.47496	1.32969	0	0
1.77	3.13122	1.12309	1.48902	0.511415	-0.577522	1.02739	0.672542	-0.0596832	-0.0102217	1.03405	-0.290197	0	0	0.498718	0.022909	-0.171519	0.259354	-0.133367	0	0	0.417249	0.124116	0.261383	-0.392731	-0.258717	-0.0615091	0.422996	1.54071	0	0	-0.096942	-0.0505578	-0.612491	0.474717	1.32946	0	0
1.78	3.14031	1.12158	1.48124	0.511262	-0.588468	1.02852	0.688497	-0.0540298	-0.0112506	1.00998	-0.268121	0	0	0.484053	0.0199714	-0.177255	0.249246	-0.136105	0	0	0.418123	0.129035	0.258222	-0.397082	-0.256728	-0.0732692	0.419945	1.5246	0	0	-0.0980393	-0.0495548	-0.610254	0.47474	1.32899	0	0
1.79	-3.13368	1.12017	1.47442	0.511148	-0.599327	1.02949	0.703244	-0.0486765	-0.0126308	0.981886	-0.247664	0	0	0.46984	0.0176261	-0.182184	0.24063	-0.138149	0	0	0.418817	0.133365	0.254416	-0.400453	-0.254733	-0.083648	0.416308	1.50694	0	0	-0.0989003	-0.0485443	-0.60767	0.475471	1.32773	0	0
1.8	-3.12391	1.1183	1.46804	0.511064	-0.61017	1.03027	0.717001	-0.0431886	-0.0137991	0.949364	-0.229467	0	0	0.456049	0.0151776	-0.186749	0.232002	-0.141106	0	0	0.42	0.137613	0.24985	-0.403361	-0.253471	-0.0907901	0.41236	1.4908	0	0	-0.0998539	-0.0476715	-0.604128	0.476617	1.32646	0	0
1.81	-3.115	1.11555	1.4629	0.510972	-0.620903	1.03081	0.730458	-0.0378211	-0.0136521	0.911908	-0.214443	0	0	0.443325	0.0131297	-0.190818	0.223393	-0.14399	0	0	0.42187	0.14134	0.24507	-0.405908	-0.252593	-0.0958693	0.408499	1.47622	0	0	-0.100929	-0.0471078	-0.59965	0.478258	1.32555	0	0
1.82	-3.10761	1.1117	1.45947	0.510866	-0.631549	1.03107	0.743778	-0.0329667	-0.0122413	0.869466	-0.204402	0	0	0.431603	0.0116403	-0.195742	0.214711	-0.145723	0	0	0.424893	0.144336	0.240124	-0.407903	-0.251597	-0.100763	0.404568	1.46387	0	0	-0.101735	-0.0465973	-0.596051	0.479574	1.32427	0	0
1.83	-3.10203	1.10569	1.4579	0.510757	-0.642098	1.03102	0.757614	-0.0284418	-0.010565	0.821744	-0.196835	0	0	0.421082	0.010505	-0.202751	0.204642	-0.147185	0	0	0.430552	0.146843	0.235342	-0.40994	-0.250373	-0.105776	0.4006	1.4509	0	0	-0.102626	-0.0460048	-0.593291	0.481019	1.32193	0	0
1.84	-3.09673	1.09818	1.45708	0.510608	-0.652602	1.03064	0.771137	-0.0240744	-0.00885669	0.769264	-0.192575	0	0	0.412613	0.00907624	-0.207383	0.193667	-0.149834	0	0	0.438181	0.149094	0.230569	-0.412628	-0.249042	-0.110128	0.397346	1.43824	0	0	-0.103756	-0.0455168	-0.590651	0.483366	1.31964	0	0
1.85	-3.09151	1.09217	1.45627	0.510336	-0.663113	1.03009	0.781162	-0.0198658	-0.00597322	0.712037	-0.19309	0	0	0.405082	0.00762512	-0.207842	0.187952	-0.151538	0	0	0.4436	0.150797	0.226212	-0.414844	-0.247969	-0.112765	0.395115	1.42718	0	0	-0.104726	-0.0455507	-0.586643	0.486787	1.319	0	0
1.86	-3.08734	1.08804	1.45659	0.510028	-0.673653	1.02945	0.787464	-0.0165126	-0.00217668	0.650399	-0.197459	0	0	0.396691	0.00661852	-0.207229	0.184553	-0.152371	0	0	0.446548	0.151434	0.222173	-0.416148	-0.24742	-0.112593	0.393167	1.41949	0	0	-0.104763	-0.0459671	-0.582582	0.489823	1.31892	0	0
1.87	-3.08539	1.0843	1.45963	0.509759	-0.684188	1.0286	0.79204	-0.0149353	0.0015667	0.585577	-0.204375	0	0	0.387098	0.0065424	-0.208194	0.178013	-0.15452	0	0	0.449223	0.150687	0.218907	-0.417176	-0.2466	-0.112114	0.390945	1.41309	0	0	-0.103447	-0.0447731	-0.582862	0.493809	1.31373	0	0
1.88	-3.08543	1.08157	1.46486	0.509452	-0.694781	1.02756	0.794714	-0.0149015	0.00551889	0.519061	-0.213536	0	0	0.376958	0.00751695	-0.209014	0.172826	-0.155415	0	0	0.449682	0.148615	0.215563	-0.417613	-0.245929	-0.11184	0.39032	1.40754	0	0	-0.102499	-0.0439471	-0.582117	0.499422	1.30935	0	0
1.89	-3.08656	1.08066	1.4716	0.509119	-0.705445	1.0264	0.794591	-0.016114	0.00923917	0.451749	-0.227948	0	0	0.365846	0.00934653	-0.207469	0.170999	-0.152238	0	0	0.447262	0.145325	0.211943	-0.416656	-0.245668	-0.108878	0.389671	1.40327	0	0	-0.102002	-0.0445089	-0.576961	0.506247	1.30681	0	0
1.9	-3.09012	1.0802	1.48102	0.508751	-0.716196	1.02498	0.793793	-0.0188293	0.0127549	0.385419	-0.239977	0	0	0.354514	0.0126991	-0.205259	0.171951	-0.147427	0	0	0.44486	0.140199	0.209141	-0.415144	-0.244772	-0.104821	0.387666	1.40268	0	0	-0.100625	-0.0455206	-0.571242	0.513564	1.30329	0	0
1.91	-3.09597	1.08065	1.49345	0.508457	-0.72698	1.02346	0.791846	-0.0234797	0.0161392	0.320248	-0.254788	0	0	0.341603	0.0173948	-0.205192	0.170706	-0.144017	0	0	0.44061	0.133605	0.205445	-0.411998	-0.244016	-0.10033	0.385198	1.40348	0	0	-0.0994503	-0.0467331	-0.564743	0.521461	1.29858	0	0
1.92	-3.10342	1.08025	1.50862	0.508257	-0.737749	1.02161	0.790802	-0.0298338	0.0190582	0.257743	-0.266683	0	0	0.330511	0.0225948	-0.202991	0.169003	-0.142092	0	0	0.43759	0.125824	0.201645	-0.410217	-0.242931	-0.0976625	0.384941	1.40519	0	0	-0.0980604	-0.0463189	-0.562244	0.531215	1.29038	0	0
